REM DIRINDEX 1\2,1\3,1\4,1\5
REM DIRNAME folder01,folder02,folder03,folder04,folder05
TITLE ""
FILE "CD2Track06.mp3" MP3
  TRACK 01 AUDIO
    TITLE "0:"
    INDEX 01 00:00:00
  TRACK 02 AUDIO
    TITLE "3:cjc100_1262"
    INDEX 01 00:00:29
  TRACK 03 AUDIO
    TITLE "3:cjc100_1263"
    INDEX 01 00:01:71
  TRACK 04 AUDIO
    TITLE "3:cjc100_1264"
    INDEX 01 00:03:37
  TRACK 05 AUDIO
    TITLE "0:"
    INDEX 01 00:04:62
  TRACK 06 AUDIO
    TITLE "3:cjc100_1265"
    INDEX 01 00:05:24
  TRACK 07 AUDIO
    TITLE "3:cjc100_1266"
    INDEX 01 00:06:65
  TRACK 08 AUDIO
    TITLE "3:cjc100_1267"
    INDEX 01 00:08:30
  TRACK 09 AUDIO
    TITLE "0:"
    INDEX 01 00:09:63
  TRACK 10 AUDIO
    TITLE "3:cjc100_1268"
    INDEX 01 00:10:23
  TRACK 11 AUDIO
    TITLE "3:cjc100_1269"
    INDEX 01 00:12:07
  TRACK 12 AUDIO
    TITLE "3:cjc100_1270"
    INDEX 01 00:13:51
  TRACK 13 AUDIO
    TITLE "0:"
    INDEX 01 00:15:23
  TRACK 14 AUDIO
    TITLE "3:cjc100_1271"
    INDEX 01 00:15:62
  TRACK 15 AUDIO
    TITLE "3:cjc100_1272"
    INDEX 01 00:17:16
  TRACK 16 AUDIO
    TITLE "3:cjc100_1273"
    INDEX 01 00:18:54
  TRACK 17 AUDIO
    TITLE "0:"
    INDEX 01 00:20:08
  TRACK 18 AUDIO
    TITLE "3:cjc100_1274"
    INDEX 01 00:20:45
  TRACK 19 AUDIO
    TITLE "3:cjc100_1275"
    INDEX 01 00:22:09
  TRACK 20 AUDIO
    TITLE "3:cjc100_1276"
    INDEX 01 00:26:40
  TRACK 21 AUDIO
    TITLE "0:"
    INDEX 01 00:27:65
  TRACK 22 AUDIO
    TITLE "3:cjc100_1277"
    INDEX 01 00:28:29
  TRACK 23 AUDIO
    TITLE "3:cjc100_1278"
    INDEX 01 00:30:12
  TRACK 24 AUDIO
    TITLE "3:cjc100_1279"
    INDEX 01 00:32:58
  TRACK 25 AUDIO
    TITLE "0:"
    INDEX 01 00:34:26
  TRACK 26 AUDIO
    TITLE "3:cjc100_1280"
    INDEX 01 00:34:69
  TRACK 27 AUDIO
    TITLE "3:cjc100_1281"
    INDEX 01 00:36:52
  TRACK 28 AUDIO
    TITLE "3:cjc100_1282"
    INDEX 01 00:38:16
  TRACK 29 AUDIO
    TITLE "0:"
    INDEX 01 00:39:74
  TRACK 30 AUDIO
    TITLE "3:cjc100_1283"
    INDEX 01 00:40:38
  TRACK 31 AUDIO
    TITLE "3:cjc100_1284"
    INDEX 01 00:41:73
  TRACK 32 AUDIO
    TITLE "3:cjc100_1285"
    INDEX 01 00:43:46
  TRACK 33 AUDIO
    TITLE "0:"
    INDEX 01 00:45:08
  TRACK 34 AUDIO
    TITLE "3:cjc100_1286"
    INDEX 01 00:45:45
  TRACK 35 AUDIO
    TITLE "3:cjc100_1287"
    INDEX 01 00:47:25
  TRACK 36 AUDIO
    TITLE "3:cjc100_1288"
    INDEX 01 00:48:73
  TRACK 37 AUDIO
    TITLE "0:"
    INDEX 01 00:50:35
  TRACK 38 AUDIO
    TITLE "3:cjc100_1289"
    INDEX 01 00:50:74
  TRACK 39 AUDIO
    TITLE "3:cjc100_1290"
    INDEX 01 00:52:12
  TRACK 40 AUDIO
    TITLE "3:cjc100_1291"
    INDEX 01 00:53:51
  TRACK 41 AUDIO
    TITLE "0:"
    INDEX 01 00:54:72
  TRACK 42 AUDIO
    TITLE "3:cjc100_1292"
    INDEX 01 00:55:32
  TRACK 43 AUDIO
    TITLE "3:cjc100_1293"
    INDEX 01 00:56:59
  TRACK 44 AUDIO
    TITLE "3:cjc100_1294"
    INDEX 01 00:58:26
  TRACK 45 AUDIO
    TITLE "0:"
    INDEX 01 00:59:51
  TRACK 46 AUDIO
    TITLE "3:cjc100_1295"
    INDEX 01 01:00:13
  TRACK 47 AUDIO
    TITLE "3:cjc100_1296"
    INDEX 01 01:01:44
  TRACK 48 AUDIO
    TITLE "3:cjc100_1297"
    INDEX 01 01:03:04
  TRACK 49 AUDIO
    TITLE "0:"
    INDEX 01 01:04:35
  TRACK 50 AUDIO
    TITLE "3:cjc100_1298"
    INDEX 01 01:05:09
  TRACK 51 AUDIO
    TITLE "3:cjc100_1299"
    INDEX 01 01:06:51
  TRACK 52 AUDIO
    TITLE "3:cjc100_1300"
    INDEX 01 01:08:17
  TRACK 53 AUDIO
    TITLE "0:"
    INDEX 01 01:09:54
  TRACK 54 AUDIO
    TITLE "3:cjc100_1301"
    INDEX 01 01:10:24
  TRACK 55 AUDIO
    TITLE "3:cjc100_1302"
    INDEX 01 01:11:62
  TRACK 56 AUDIO
    TITLE "3:cjc100_1303"
    INDEX 01 01:13:12
  TRACK 57 AUDIO
    TITLE "0:"
    INDEX 01 01:14:45
  TRACK 58 AUDIO
    TITLE "3:cjc100_1304"
    INDEX 01 01:15:03
  TRACK 59 AUDIO
    TITLE "3:cjc100_1305"
    INDEX 01 01:16:34
  TRACK 60 AUDIO
    TITLE "3:cjc100_1306"
    INDEX 01 01:17:65
  TRACK 61 AUDIO
    TITLE "0:"
    INDEX 01 01:19:17
  TRACK 62 AUDIO
    TITLE "3:cjc100_1307"
    INDEX 01 01:19:54
  TRACK 63 AUDIO
    TITLE "3:cjc100_1308"
    INDEX 01 01:21:21
  TRACK 64 AUDIO
    TITLE "3:cjc100_1309"
    INDEX 01 01:23:07
  TRACK 65 AUDIO
    TITLE "0:"
    INDEX 01 01:24:36
  TRACK 66 AUDIO
    TITLE "3:cjc100_1310"
    INDEX 01 01:25:04
  TRACK 67 AUDIO
    TITLE "3:cjc100_1311"
    INDEX 01 01:26:52
  TRACK 68 AUDIO
    TITLE "3:cjc100_1312"
    INDEX 01 01:28:12
  TRACK 69 AUDIO
    TITLE "0:"
    INDEX 01 01:29:56
  TRACK 70 AUDIO
    TITLE "3:cjc100_1313"
    INDEX 01 01:30:28
  TRACK 71 AUDIO
    TITLE "3:cjc100_1314"
    INDEX 01 01:32:02
  TRACK 72 AUDIO
    TITLE "3:cjc100_1315"
    INDEX 01 01:33:50
  TRACK 73 AUDIO
    TITLE "0:"
    INDEX 01 01:35:14
  TRACK 74 AUDIO
    TITLE "3:cjc100_1316"
    INDEX 01 01:35:59
  TRACK 75 AUDIO
    TITLE "3:cjc100_1317"
    INDEX 01 01:37:19
  TRACK 76 AUDIO
    TITLE "3:cjc100_1318"
    INDEX 01 01:39:23
  TRACK 77 AUDIO
    TITLE "0:"
    INDEX 01 01:40:60
  TRACK 78 AUDIO
    TITLE "3:cjc100_1319"
    INDEX 01 01:41:32
  TRACK 79 AUDIO
    TITLE "3:cjc100_1320"
    INDEX 01 01:42:59
  TRACK 80 AUDIO
    TITLE "3:cjc100_1321"
    INDEX 01 01:44:23
  TRACK 81 AUDIO
    TITLE "0:"
    INDEX 01 01:45:47
  TRACK 82 AUDIO
    TITLE "3:cjc100_1322"
    INDEX 01 01:46:16
  TRACK 83 AUDIO
    TITLE "3:cjc100_1323"
    INDEX 01 01:47:31
  TRACK 84 AUDIO
    TITLE "3:cjc100_1324"
    INDEX 01 01:48:56
  TRACK 85 AUDIO
    TITLE "0:"
    INDEX 01 01:50:02
  TRACK 86 AUDIO
    TITLE "3:cjc100_1325"
    INDEX 01 01:50:41
  TRACK 87 AUDIO
    TITLE "3:cjc100_1326"
    INDEX 01 01:52:10
  TRACK 88 AUDIO
    TITLE "3:cjc100_1327"
    INDEX 01 01:53:23
  TRACK 89 AUDIO
    TITLE "0:"
    INDEX 01 01:54:42
  TRACK 90 AUDIO
    TITLE "3:cjc100_1328"
    INDEX 01 01:55:07
  TRACK 91 AUDIO
    TITLE "3:cjc100_1329"
    INDEX 01 01:56:39
  TRACK 92 AUDIO
    TITLE "3:cjc100_1330"
    INDEX 01 01:58:09
  TRACK 93 AUDIO
    TITLE "0:"
    INDEX 01 01:59:42
  TRACK 94 AUDIO
    TITLE "3:cjc100_1331"
    INDEX 01 02:00:06
  TRACK 95 AUDIO
    TITLE "3:cjc100_1332"
    INDEX 01 02:01:60
  TRACK 96 AUDIO
    TITLE "3:cjc100_1333"
    INDEX 01 02:04:68
  TRACK 97 AUDIO
    TITLE "0:"
    INDEX 01 02:06:26
  TRACK 98 AUDIO
    TITLE "3:cjc100_1334"
    INDEX 01 02:06:69
  TRACK 99 AUDIO
    TITLE "3:cjc100_1335"
    INDEX 01 02:08:43
  TRACK 100 AUDIO
    TITLE "3:cjc100_1336"
    INDEX 01 02:10:49
  TRACK 101 AUDIO
    TITLE "0:"
    INDEX 01 02:12:05
  TRACK 102 AUDIO
    TITLE "3:cjc100_1337"
    INDEX 01 02:12:44
  TRACK 103 AUDIO
    TITLE "3:cjc100_1338"
    INDEX 01 02:14:08
  TRACK 104 AUDIO
    TITLE "3:cjc100_1339"
    INDEX 01 02:15:35
  TRACK 105 AUDIO
    TITLE "0:"
    INDEX 01 02:16:73
  TRACK 106 AUDIO
    TITLE "3:cjc100_1340"
    INDEX 01 02:17:36
  TRACK 107 AUDIO
    TITLE "3:cjc100_1341"
    INDEX 01 02:18:53
  TRACK 108 AUDIO
    TITLE "3:cjc100_1342"
    INDEX 01 02:20:12
  TRACK 109 AUDIO
    TITLE "0:"
    INDEX 01 02:21:30
  TRACK 110 AUDIO
    TITLE "3:cjc100_1343"
    INDEX 01 02:22:04
  TRACK 111 AUDIO
    TITLE "3:cjc100_1344"
    INDEX 01 02:23:40
  TRACK 112 AUDIO
    TITLE "3:cjc100_1345"
    INDEX 01 02:24:73
  TRACK 113 AUDIO
    TITLE "0:"
    INDEX 01 02:26:23
  TRACK 114 AUDIO
    TITLE "3:cjc100_1346"
    INDEX 01 02:26:60
  TRACK 115 AUDIO
    TITLE "3:cjc100_1347"
    INDEX 01 02:28:28
  TRACK 116 AUDIO
    TITLE "3:cjc100_1348"
    INDEX 01 02:30:13
  TRACK 117 AUDIO
    TITLE "0:"
    INDEX 01 02:31:55
  TRACK 118 AUDIO
    TITLE "3:cjc100_1349"
    INDEX 01 02:32:29
  TRACK 119 AUDIO
    TITLE "3:cjc100_1350"
    INDEX 01 02:33:52
  TRACK 120 AUDIO
    TITLE "3:cjc100_1351"
    INDEX 01 02:36:12
  TRACK 121 AUDIO
    TITLE "0:"
    INDEX 01 02:37:36
  TRACK 122 AUDIO
    TITLE "3:cjc100_1352"
    INDEX 01 02:38:08
  TRACK 123 AUDIO
    TITLE "3:cjc100_1353"
    INDEX 01 02:39:37
  TRACK 124 AUDIO
    TITLE "3:cjc100_1354"
    INDEX 01 02:41:09
  TRACK 125 AUDIO
    TITLE "0:"
    INDEX 01 02:42:32
  TRACK 126 AUDIO
    TITLE "3:cjc100_1355"
    INDEX 01 02:42:67
  TRACK 127 AUDIO
    TITLE "3:cjc100_1356"
    INDEX 01 02:44:62
  TRACK 128 AUDIO
    TITLE "3:cjc100_1357"
    INDEX 01 02:46:59
  TRACK 129 AUDIO
    TITLE "0:"
    INDEX 01 02:48:26
  TRACK 130 AUDIO
    TITLE "3:cjc100_1358"
    INDEX 01 02:48:68
  TRACK 131 AUDIO
    TITLE "3:cjc100_1359"
    INDEX 01 02:50:43
  TRACK 132 AUDIO
    TITLE "3:cjc100_1360"
    INDEX 01 02:54:31
  TRACK 133 AUDIO
    TITLE "0:"
    INDEX 01 02:55:62
  TRACK 134 AUDIO
    TITLE "3:cjc100_1361"
    INDEX 01 02:56:38
  TRACK 135 AUDIO
    TITLE "3:cjc100_1362"
    INDEX 01 02:58:03
  TRACK 136 AUDIO
    TITLE "3:cjc100_1363"
    INDEX 01 03:00:20
  TRACK 137 AUDIO
    TITLE "0:"
    INDEX 01 03:01:60
  TRACK 138 AUDIO
    TITLE "3:cjc100_1364"
    INDEX 01 03:02:29
  TRACK 139 AUDIO
    TITLE "3:cjc100_1365"
    INDEX 01 03:03:44
  TRACK 140 AUDIO
    TITLE "3:cjc100_1366"
    INDEX 01 03:05:09
  TRACK 141 AUDIO
    TITLE "0:"
    INDEX 01 03:06:26
  TRACK 142 AUDIO
    TITLE "3:cjc100_1367"
    INDEX 01 03:07:02
  TRACK 143 AUDIO
    TITLE "3:cjc100_1368"
    INDEX 01 03:08:41
  TRACK 144 AUDIO
    TITLE "3:cjc100_1369"
    INDEX 01 03:10:20
  TRACK 145 AUDIO
    TITLE "0:"
    INDEX 01 03:11:59
